<svg width="128" height="128" viewBox="0 0 128 128" fill="none" xmlns="http://www.w3.org/2000/svg">
<path d="M64 123.94C95.6791 123.94 121.36 98.259 121.36 66.58C121.36 34.9009 95.6791 9.21997 64 9.21997C32.321 9.21997 6.64001 34.9009 6.64001 66.58C6.64001 98.259 32.321 123.94 64 123.94Z" fill="#D68F30"/>
<path d="M10.54 81.48V87.34C11.14 88.89 11.81 90.42 12.54 91.9V81.48H10.54ZM17.08 92.51V99.55C17.88 100.68 18.71 101.79 19.58 102.86V92.51H17.08ZM25.74 101.71V109.3C26.71 110.17 27.71 111 28.74 111.8V101.71H25.74ZM36.4 108.7V116.86C37.38 117.4 38.38 117.91 39.4 118.4V108.7H36.4ZM48.49 113.15V121.79C49.48 122.07 50.48 122.32 51.49 122.55V113.15H48.49ZM62.64 114.69V123.9C63.09 123.91 63.54 123.93 64 123.93C64.55 123.93 65.1 123.9 65.64 123.89V114.69H62.64V114.69ZM76.79 113.08V122.48C77.8 122.25 78.8 121.99 79.79 121.71V113.08H76.79V113.08ZM88.85 108.57V118.28C89.87 117.79 90.87 117.26 91.85 116.71V108.57H88.85ZM99.48 101.52V111.62C100.509 110.816 101.51 109.975 102.48 109.1V101.52H99.48ZM111.09 92.29H108.59V102.64C109.46 101.56 110.3 100.45 111.09 99.31V92.29ZM117.59 81.22H115.59V91.66C116.32 90.15 116.99 88.6 117.59 87.03V81.22Z" fill="#BC6F00"/>
<path d="M64 118.78C95.6791 118.78 121.36 93.0991 121.36 61.4201C121.36 29.741 95.6791 4.06006 64 4.06006C32.321 4.06006 6.64001 29.741 6.64001 61.4201C6.64001 93.0991 32.321 118.78 64 118.78Z" fill="#FFF176"/>
<path d="M64 113.67C92.8569 113.67 116.25 90.2768 116.25 61.4199C116.25 32.563 92.8569 9.16992 64 9.16992C35.1431 9.16992 11.75 32.563 11.75 61.4199C11.75 90.2768 35.1431 113.67 64 113.67Z" fill="#F2BC1A"/>
<path d="M11.65 63.4201C11.28 56.5401 12.47 49.5601 14.87 43.0201C17.37 36.5001 21.2 30.4701 26.03 25.3501C35.73 15.0901 49.81 9.14007 64 9.07007C78.19 9.15007 92.28 15.0901 101.96 25.3601C106.8 30.4701 110.62 36.5101 113.12 43.0201C115.53 49.5701 116.72 56.5401 116.34 63.4201H116.14C116.12 56.5567 114.762 49.7631 112.14 43.4201C109.514 37.0842 105.679 31.3203 100.85 26.4501C96.0179 21.5846 90.2755 17.7178 83.95 15.0701C77.6267 12.4299 70.8424 11.0705 63.99 11.0705C57.1377 11.0705 50.3534 12.4299 44.03 15.0701C37.7046 17.7178 31.9621 21.5846 27.13 26.4501C22.2977 31.3177 18.4625 37.0823 15.84 43.4201C13.2184 49.7631 11.8597 56.5567 11.84 63.4201H11.65V63.4201Z" fill="#E08F00"/>
<path d="M64 4.07007C32.32 4.07007 6.64001 29.7501 6.64001 61.4301C6.64001 93.1101 32.32 118.79 64 118.79C95.68 118.79 121.36 93.1101 121.36 61.4301C121.36 29.7501 95.68 4.07007 64 4.07007ZM64 113.68C35.14 113.68 11.75 90.2901 11.75 61.4301C11.75 32.5601 35.14 9.17007 64 9.17007C92.86 9.17007 116.25 32.5601 116.25 61.4201C116.25 90.2801 92.86 113.68 64 113.68Z" fill="#FFF176"/>
<path d="M37.99 21.3501L39.26 25.2801L43.4 23.7001V25.2801L40.05 27.7101L41.33 30.0501V31.6401L37.99 29.2101L34.64 31.6401V30.0501L35.92 27.7101L32.58 25.2801V23.7001L36.71 25.2801L37.99 21.3501ZM22.01 43.9101L23.29 47.8401L27.42 46.2601V47.8401L24.08 50.2701L25.36 52.6201V54.2001L22.01 51.7701L18.67 54.2001V52.6201L19.95 50.2701L16.6 47.8401V46.2601L20.74 47.8401L22.01 43.9101ZM21.54 71.7201L22.82 75.6501L26.95 74.0701V75.6501L23.61 78.0801L24.89 80.4301V82.0101L21.54 79.5801L18.2 82.0101V80.4301L19.48 78.0801L16.13 75.6501V74.0701L20.27 75.6501L21.54 71.7201ZM38.6 93.8001L39.88 97.7301L44.01 96.1501V97.7301L40.67 100.16L41.95 102.5V104.09L38.6 101.66L35.26 104.09V102.5L36.54 100.16L33.19 97.7301V96.1501L37.33 97.7301L38.6 93.8001ZM90.01 21.3501L88.74 25.2801L84.6 23.7001V25.2801L87.95 27.7101L86.67 30.0501V31.6401L90.01 29.2101L93.36 31.6401V30.0501L92.08 27.7101L95.42 25.2801V23.7001L91.29 25.2801L90.01 21.3501ZM105.99 43.9101L104.71 47.8401L100.58 46.2601V47.8401L103.92 50.2701L102.64 52.6201V54.2001L105.99 51.7701L109.33 54.2001V52.6201L108.05 50.2701L111.4 47.8401V46.2601L107.26 47.8401L105.99 43.9101ZM106.46 71.7201L105.18 75.6501L101.05 74.0701V75.6501L104.39 78.0801L103.11 80.4301V82.0101L106.46 79.5801L109.8 82.0101V80.4301L108.52 78.0801L111.87 75.6501V74.0701L107.73 75.6501L106.46 71.7201ZM89.4 93.8001L88.12 97.7301L83.99 96.1501V97.7301L87.33 100.16L86.05 102.5V104.09L89.4 101.66L92.74 104.09V102.5L91.46 100.16L94.81 97.7301V96.1501L90.67 97.7301L89.4 93.8001Z" fill="#D38200"/>
<path d="M89.4 92.21L90.67 96.14H94.81L91.46 98.57L92.74 102.5L89.4 100.07L86.05 102.5L87.33 98.57L83.99 96.14H88.12L89.4 92.21ZM106.46 70.14L107.73 74.07H111.87L108.52 76.5L109.8 80.43L106.46 78L103.11 80.43L104.39 76.5L101.05 74.07H105.18L106.46 70.14ZM105.99 42.33L107.26 46.26H111.4L108.05 48.69L109.33 52.62L105.99 50.19L102.64 52.62L103.92 48.69L100.58 46.26H104.71L105.99 42.33ZM90.01 19.76L91.29 23.69H95.42L92.08 26.12L93.36 30.05L90.01 27.62L86.67 30.05L87.95 26.12L84.6 23.69H88.74L90.01 19.76Z" fill="#FFF176"/>
<path d="M64.05 102.5L65.33 106.43L69.46 104.85V106.43L66.12 108.86L67.4 111.21V112.79L64.05 110.36L60.71 112.79V111.21L61.99 108.86L58.64 106.43V104.85L62.78 106.43L64.05 102.5Z" fill="#D38200"/>
<path d="M64.05 100.4L65.33 104.33H69.46L66.12 106.76L67.4 110.69L64.05 108.26L60.71 110.69L61.99 106.76L58.64 104.33H62.78L64.05 100.4Z" fill="#FFF176"/>
<path d="M64.05 12.8899L65.33 16.8199L69.46 15.2399V16.8199L66.12 19.2499L67.4 21.5999V23.1799L64.05 20.7499L60.71 23.1799V21.5999L61.99 19.2499L58.64 16.8199V15.2399L62.78 16.8199L64.05 12.8899Z" fill="#D38200"/>
<path d="M64.05 11.3101L65.33 15.2401H69.46L66.12 17.6701L67.4 21.6001L64.05 19.1701L60.71 21.6001L61.99 17.6701L58.64 15.2401H62.78L64.05 11.3101ZM38.6 92.2101L37.33 96.1401H33.19L36.54 98.5701L35.26 102.5L38.6 100.07L41.95 102.5L40.67 98.5701L44.01 96.1401H39.88L38.6 92.2101ZM21.54 70.1401L20.27 74.0701H16.13L19.48 76.5001L18.2 80.4301L21.54 78.0001L24.89 80.4301L23.61 76.5001L26.95 74.0701H22.82L21.54 70.1401ZM22.01 42.3301L20.74 46.2601H16.6L19.95 48.6901L18.67 52.6201L22.01 50.1901L25.36 52.6201L24.08 48.6901L27.42 46.2601H23.29L22.01 42.3301ZM37.99 19.7601L36.71 23.6901H32.58L35.92 26.1201L34.64 30.0501L37.99 27.6201L41.33 30.0501L40.05 26.1201L43.4 23.6901H39.26L37.99 19.7601Z" fill="#FFF176"/>
<path d="M95.2199 48.2C95.2199 47.85 32.8399 48.2 32.8399 48.2L32.2799 49.88V52.75C32.2799 53.27 32.6999 53.69 33.2199 53.69H94.7799C95.2999 53.69 95.7199 53.27 95.7199 52.75V49.96L95.2199 48.2ZM95.3099 85.5H33.0999L28.9399 87.59L28.9899 90.28C28.9999 90.57 29.2399 90.81 29.5399 90.81H98.4699C98.7599 90.81 99.0099 90.58 99.0199 90.28L99.0699 87.64L95.3099 85.5Z" fill="#D38200"/>
<path d="M43.13 77.3201H39.55C38.96 77.3201 38.48 75.4601 38.48 74.8701L44.19 74.6901C44.19 75.2801 43.71 77.3201 43.13 77.3201V77.3201ZM44.35 58.0101H38.32C37.87 58.0101 37.48 57.7101 37.35 57.2801L36.88 53.3501H45.71L45.31 57.2801C45.19 57.7101 44.8 58.0101 44.35 58.0101ZM38.32 78.5101H44.35C44.8 78.5101 45.69 78.7901 45.81 79.2201C45.81 79.2201 45.78 81.0901 45.78 81.8301C45.78 82.5701 45.48 83.1101 44.81 83.1101H37.86C37.19 83.1101 36.89 82.5101 36.89 81.8301C36.89 81.1501 36.86 79.2401 36.86 79.2401C36.99 78.8101 37.87 78.5101 38.32 78.5101V78.5101ZM89.63 77.3201H86.05C85.46 77.3201 84.98 75.4601 84.98 74.8701L90.69 74.6901C90.69 75.2801 90.22 77.3201 89.63 77.3201V77.3201ZM90.85 58.0101H84.82C84.37 58.0101 83.98 57.7101 83.85 57.2801L83.38 53.3501H92.21L91.81 57.2801C91.69 57.7101 91.3 58.0101 90.85 58.0101ZM84.82 78.5101H90.85C91.3 78.5101 92.19 78.7901 92.31 79.2201C92.31 79.2201 92.28 81.0901 92.28 81.8301C92.28 82.5701 91.98 83.1101 91.31 83.1101H84.36C83.69 83.1101 83.39 82.5101 83.39 81.8301C83.39 81.1501 83.36 79.2401 83.36 79.2401C83.49 78.8101 84.37 78.5101 84.82 78.5101V78.5101ZM74.13 77.3201H70.55C69.96 77.3201 69.48 75.4601 69.48 74.8701L75.19 74.6901C75.19 75.2801 74.72 77.3201 74.13 77.3201V77.3201ZM75.35 58.0101H69.32C68.87 58.0101 68.48 57.7101 68.35 57.2801L67.88 53.3501H76.71L76.31 57.2801C76.19 57.7101 75.8 58.0101 75.35 58.0101ZM69.32 78.5101H75.35C75.8 78.5101 76.69 78.7901 76.81 79.2201C76.81 79.2201 76.78 81.0901 76.78 81.8301C76.78 82.5701 76.48 83.1101 75.81 83.1101H68.86C68.19 83.1101 67.89 82.5101 67.89 81.8301C67.89 81.1501 67.86 79.2401 67.86 79.2401C67.99 78.8101 68.87 78.5101 69.32 78.5101V78.5101ZM58.63 77.3201H55.05C54.46 77.3201 53.98 75.4601 53.98 74.8701L59.69 74.6901C59.69 75.2801 59.22 77.3201 58.63 77.3201V77.3201ZM59.85 58.0101H53.82C53.37 58.0101 52.98 57.7101 52.85 57.2801L52.38 53.3501H61.21L60.81 57.2801C60.69 57.7101 60.3 58.0101 59.85 58.0101ZM53.82 78.5101H59.85C60.3 78.5101 61.19 78.7901 61.31 79.2201C61.31 79.2201 61.28 81.0901 61.28 81.8301C61.28 82.5701 60.98 83.1101 60.31 83.1101H53.36C52.69 83.1101 52.39 82.5101 52.39 81.8301C52.39 81.1501 52.36 79.2401 52.36 79.2401C52.49 78.8101 53.37 78.5101 53.82 78.5101V78.5101Z" fill="#D38200"/>
<path d="M95.67 45.52C95.67 45.17 95.49 44.84 95.22 44.68L64.04 26.98L32.82 44.66C32.52 44.84 32.33 45.17 32.33 45.52L32.28 49.89C32.28 50.44 32.73 50.89 33.28 50.89H94.71C95.26 50.89 95.71 50.44 95.71 49.89L95.67 45.52V45.52Z" fill="#FFF176"/>
<path d="M87.84 44.3301L64 30.8L40.16 44.3301H87.84Z" fill="#F2BC1A"/>
<path d="M79.07 42.6801L64 34.1201L48.93 42.6801H79.07ZM93.39 82.0201H34.61C34.03 82.0201 33.48 82.2701 33.09 82.7001L29.05 87.2101C28.77 87.5201 28.99 88.0101 29.41 88.0101H98.59C99 88.0101 99.22 87.5201 98.95 87.2101L94.9 82.7001C94.52 82.2701 93.96 82.0201 93.39 82.0201V82.0201ZM89.63 75.5101H86.05C85.46 75.5101 84.98 75.0301 84.98 74.4401V58.4601C84.98 57.8701 85.46 57.3901 86.05 57.3901H89.63C90.22 57.3901 90.7 57.8701 90.7 58.4601V74.4501C90.7 75.0401 90.22 75.5101 89.63 75.5101ZM90.86 56.2001H84.83C84.38 56.2001 83.99 55.9001 83.86 55.4701L83.4 53.8801C83.21 53.2401 83.7 52.6001 84.37 52.6001H91.32C91.99 52.6001 92.47 53.2401 92.29 53.8801L91.83 55.4701C91.7 55.9001 91.3 56.2001 90.86 56.2001V56.2001ZM84.82 76.7101H90.85C91.3 76.7101 91.69 77.0101 91.82 77.4401L92.28 79.0301C92.47 79.6701 91.98 80.3101 91.31 80.3101H84.36C83.69 80.3101 83.21 79.6701 83.39 79.0301L83.85 77.4401C83.98 77.0001 84.38 76.7101 84.82 76.7101V76.7101ZM43.13 75.5101H39.55C38.96 75.5101 38.48 75.0301 38.48 74.4401V58.4601C38.48 57.8701 38.96 57.3901 39.55 57.3901H43.13C43.72 57.3901 44.2 57.8701 44.2 58.4601V74.4501C44.19 75.0401 43.71 75.5101 43.13 75.5101ZM44.35 56.2001H38.32C37.87 56.2001 37.48 55.9001 37.35 55.4701L36.89 53.8801C36.7 53.2401 37.19 52.6001 37.86 52.6001H44.81C45.48 52.6001 45.96 53.2401 45.78 53.8801L45.32 55.4701C45.19 55.9001 44.8 56.2001 44.35 56.2001ZM38.32 76.7101H44.35C44.8 76.7101 45.19 77.0101 45.32 77.4401L45.78 79.0301C45.97 79.6701 45.48 80.3101 44.81 80.3101H37.86C37.19 80.3101 36.71 79.6701 36.89 79.0301L37.35 77.4401C37.48 77.0001 37.87 76.7101 38.32 76.7101ZM58.63 75.5101H55.05C54.46 75.5101 53.98 75.0301 53.98 74.4401V58.4601C53.98 57.8701 54.46 57.3901 55.05 57.3901H58.63C59.22 57.3901 59.7 57.8701 59.7 58.4601V74.4501C59.6974 74.7322 59.5835 75.0018 59.3831 75.2003C59.1827 75.3988 58.9121 75.5101 58.63 75.5101V75.5101ZM59.85 56.2001H53.82C53.37 56.2001 52.98 55.9001 52.85 55.4701L52.39 53.8801C52.2 53.2401 52.69 52.6001 53.36 52.6001H60.31C60.98 52.6001 61.46 53.2401 61.28 53.8801L60.82 55.4701C60.69 55.9001 60.3 56.2001 59.85 56.2001ZM53.82 76.7101H59.85C60.3 76.7101 60.69 77.0101 60.82 77.4401L61.28 79.0301C61.47 79.6701 60.98 80.3101 60.31 80.3101H53.36C52.69 80.3101 52.21 79.6701 52.39 79.0301L52.85 77.4401C52.98 77.0001 53.37 76.7101 53.82 76.7101ZM74.13 75.5101H70.55C69.96 75.5101 69.48 75.0301 69.48 74.4401V58.4601C69.48 57.8701 69.96 57.3901 70.55 57.3901H74.13C74.72 57.3901 75.2 57.8701 75.2 58.4601V74.4501C75.1974 74.7322 75.0835 75.0018 74.8831 75.2003C74.6827 75.3988 74.4121 75.5101 74.13 75.5101V75.5101ZM75.35 56.2001H69.32C68.87 56.2001 68.48 55.9001 68.35 55.4701L67.89 53.8801C67.7 53.2401 68.19 52.6001 68.86 52.6001H75.81C76.48 52.6001 76.96 53.2401 76.78 53.8801L76.32 55.4701C76.19 55.9001 75.8 56.2001 75.35 56.2001V56.2001ZM69.32 76.7101H75.35C75.8 76.7101 76.19 77.0101 76.32 77.4401L76.78 79.0301C76.97 79.6701 76.48 80.3101 75.81 80.3101H68.86C68.19 80.3101 67.71 79.6701 67.89 79.0301L68.35 77.4401C68.48 77.0001 68.88 76.7101 69.32 76.7101V76.7101Z" fill="#FFF176"/>
</svg>
