<svg width="119" height="119" viewBox="0 0 119 119" fill="none" xmlns="http://www.w3.org/2000/svg">
<path d="M40.9062 70.7381C41.4715 77.8334 47.0794 83.3595 57.1349 84.014V89.25H61.5974V83.9768C72.0099 83.2479 78.0938 77.6847 78.0938 69.6076C78.0938 62.2668 73.4379 58.4811 65.1153 56.5176L61.5974 55.6846V41.4269C66.0599 41.9326 68.901 44.3721 69.5852 47.7488H77.4095C76.8442 40.9137 70.9835 35.5661 61.5974 34.986V29.75H57.1349V35.0976C48.2471 35.9677 42.1855 41.3153 42.1855 48.8793C42.1855 55.573 46.6926 59.8273 54.1822 61.5751L57.1349 62.3039V77.4318C52.5608 76.7401 49.5337 74.2337 48.8495 70.7381H40.9062V70.7381ZM57.0977 54.6284C52.7096 53.6095 50.3296 51.5344 50.3296 48.4107C50.3296 44.9151 52.8955 42.2971 57.1349 41.531V54.621H57.0977V54.6284ZM62.2444 63.5014C67.5771 64.736 70.0389 66.7367 70.0389 70.2695C70.0389 74.3006 66.9747 77.0674 61.5974 77.5731V63.3526L62.2444 63.5014V63.5014Z" fill="#FFE81A"/>
<path d="M59.5 111.562C45.6922 111.562 32.4499 106.077 22.6863 96.3137C12.9226 86.5501 7.4375 73.3078 7.4375 59.5C7.4375 45.6922 12.9226 32.4499 22.6863 22.6863C32.4499 12.9226 45.6922 7.4375 59.5 7.4375C73.3078 7.4375 86.5501 12.9226 96.3137 22.6863C106.077 32.4499 111.562 45.6922 111.562 59.5C111.562 73.3078 106.077 86.5501 96.3137 96.3137C86.5501 106.077 73.3078 111.562 59.5 111.562ZM59.5 119C75.2804 119 90.4144 112.731 101.573 101.573C112.731 90.4144 119 75.2804 119 59.5C119 43.7196 112.731 28.5856 101.573 17.4271C90.4144 6.26873 75.2804 0 59.5 0C43.7196 0 28.5856 6.26873 17.4271 17.4271C6.26873 28.5856 0 43.7196 0 59.5C0 75.2804 6.26873 90.4144 17.4271 101.573C28.5856 112.731 43.7196 119 59.5 119V119Z" fill="#FFE81A"/>
<path d="M59.5 100.406C48.651 100.406 38.2463 96.0965 30.5749 88.4251C22.9035 80.7537 18.5938 70.349 18.5938 59.5C18.5938 48.651 22.9035 38.2463 30.5749 30.5749C38.2463 22.9035 48.651 18.5938 59.5 18.5938C70.349 18.5938 80.7537 22.9035 88.4251 30.5749C96.0965 38.2463 100.406 48.651 100.406 59.5C100.406 70.349 96.0965 80.7537 88.4251 88.4251C80.7537 96.0965 70.349 100.406 59.5 100.406ZM59.5 104.125C65.3602 104.125 71.1631 102.971 76.5772 100.728C81.9914 98.4855 86.9108 95.1985 91.0546 91.0546C95.1985 86.9108 98.4855 81.9914 100.728 76.5772C102.971 71.1631 104.125 65.3602 104.125 59.5C104.125 53.6398 102.971 47.8369 100.728 42.4228C98.4855 37.0086 95.1985 32.0892 91.0546 27.9454C86.9108 23.8015 81.9914 20.5145 76.5772 18.2719C71.1631 16.0293 65.3602 14.875 59.5 14.875C47.6647 14.875 36.3142 19.5765 27.9454 27.9454C19.5765 36.3142 14.875 47.6647 14.875 59.5C14.875 71.3353 19.5765 82.6858 27.9454 91.0546C36.3142 99.4234 47.6647 104.125 59.5 104.125V104.125Z" fill="#FFE81A"/>
</svg>
