<svg width="126" height="126" viewBox="0 0 126 126" fill="none" xmlns="http://www.w3.org/2000/svg">
<mask id="mask0_156_18" style="mask-type:alpha" maskUnits="userSpaceOnUse" x="0" y="0" width="126" height="126">
<path d="M63 126C97.7939 126 126 97.7939 126 63C126 28.2061 97.7939 0 63 0C28.2061 0 0 28.2061 0 63C0 97.7939 28.2061 126 63 126Z" fill="white"/>
</mask>
<g mask="url(#mask0_156_18)">
<path d="M0 0H126V126H0V0Z" fill="#0052B4"/>
<path d="M63 24.6587L65.0425 30.9341H71.6132L66.273 34.7978L68.3156 41.0977L62.9754 37.2095L57.6351 41.0977L59.6777 34.7978L54.3375 30.9341H60.9328L63 24.6587ZM35.8804 35.8806L41.7867 38.8829L46.4379 34.2071L45.4043 40.7286L51.2859 43.731L44.7644 44.7645L43.7308 51.286L40.7285 45.3798L34.207 46.438L38.8828 41.7622L35.8804 35.8806ZM24.6586 63.0001L30.934 60.9575V54.3868L34.7976 59.727L41.0976 57.6845L37.2093 63.0247L41.0976 68.3649L34.7976 66.3224L30.934 71.6626V65.0673L24.6586 63.0001ZM35.8804 90.1196L38.8828 84.2134L34.207 79.5622L40.7285 80.5958L43.7308 74.7141L44.7644 81.2356L51.2859 82.2692L45.3797 85.2716L46.4379 91.793L41.7621 87.1173L35.8804 90.1196ZM63 101.341L60.9574 95.0661H54.3867L59.7269 91.2024L57.6843 84.9024L63.0246 88.7907L68.3648 84.9024L66.3222 91.2024L71.6625 95.0661H65.0672L63 101.341ZM90.1195 90.1196L84.2132 87.1173L79.5621 91.793L80.5957 85.2716L74.714 82.2692L81.2355 81.2356L82.2691 74.7141L85.2714 80.6204L91.7929 79.5622L87.1171 84.238L90.1195 90.1196ZM101.341 63.0001L95.066 65.0427V71.6134L91.2023 66.2731L84.9023 68.3157L88.7906 62.9755L84.9023 57.6352L91.2023 59.6778L95.066 54.3376V60.9329L101.341 63.0001ZM90.1195 35.8806L87.1171 41.7868L91.7929 46.438L85.2714 45.4044L82.2691 51.286L81.2355 44.7645L74.714 43.731L80.6203 40.7286L79.5621 34.2071L84.2378 38.8829L90.1195 35.8806Z" fill="#FFDA44"/>
</g>
</svg>
