<svg width="576" height="192" viewBox="0 0 576 192" fill="none" xmlns="http://www.w3.org/2000/svg">
<path d="M565.3 8.10001C553.5 -2.59999 535.1 -1.89999 522.7 8.10001L430.3 82C419 91.1 404.9 96 390.3 96H272C263.2 96 256 88.8 256 80C256 71.2 263.2 64 272 64H350.3C366.2 64 381 53.1 383.6 37.4C386.9 17.4 371.5 0 352 0H192C165 0 138.9 9.29999 117.9 26.3L71.4 64H16C7.2 64 0 71.2 0 80V176C0 184.8 7.2 192 16 192H372.8C387.3 192 401.4 187.1 412.8 178L564 57C579.2 44.9 580.4 21.7 565.3 8.10001Z" fill="#1A81FF"/>
</svg>
