<svg width="32" height="32" viewBox="0 0 32 32" fill="none" xmlns="http://www.w3.org/2000/svg">
<path fill-rule="evenodd" clip-rule="evenodd" d="M26.668 7.99935C26.668 7.26297 26.071 6.66602 25.3346 6.66602H5.33463C4.59826 6.66602 4.0013 7.26297 4.0013 7.99935C4.0013 8.73573 4.59826 9.33268 5.33463 9.33268H25.3346C26.071 9.33268 26.668 8.73573 26.668 7.99935Z" fill="#1C324A"/>
<path fill-rule="evenodd" clip-rule="evenodd" d="M26.668 15.9993C26.668 15.263 26.071 14.666 25.3346 14.666H12.0013C11.2649 14.666 10.668 15.263 10.668 15.9993C10.668 16.7357 11.2649 17.3327 12.0013 17.3327H25.3346C26.071 17.3327 26.668 16.7357 26.668 15.9993Z" fill="#1C324A"/>
<path fill-rule="evenodd" clip-rule="evenodd" d="M26.668 23.9993C26.668 23.263 26.071 22.666 25.3346 22.666H17.3346C16.5983 22.666 16.0013 23.263 16.0013 23.9993C16.0013 24.7357 16.5983 25.3327 17.3346 25.3327H25.3346C26.071 25.3327 26.668 24.7357 26.668 23.9993Z" fill="#1C324A"/>
</svg>
