<svg width="132" height="132" viewBox="0 0 132 132" fill="none" xmlns="http://www.w3.org/2000/svg">
<path d="M65.7937 4.125C38.9812 4.125 16.0875 21.45 7.63123 45.375H124.369C115.706 21.45 92.8125 4.125 65.7937 4.125Z" fill="#F9F9F9"/>
<path d="M65.7937 127.875C92.8125 127.875 115.706 110.55 124.162 86.625H7.63123C16.0875 110.756 38.9812 127.875 65.7937 127.875Z" fill="#ED4C5C"/>
<path d="M7.63125 45.375C5.3625 51.7687 4.125 58.7812 4.125 66C4.125 73.2188 5.3625 80.2313 7.63125 86.625H124.369C126.637 80.2313 127.875 73.2188 127.875 66C127.875 58.7812 126.637 51.7687 124.369 45.375H7.63125Z" fill="#428BC1"/>
</svg>
