<svg width="42" height="56" viewBox="0 0 42 56" fill="none" xmlns="http://www.w3.org/2000/svg">
<path d="M18.8417 54.88C2.94933 31.8313 0 29.4677 0 21C0 9.401 9.401 0 21 0C32.599 0 42 9.401 42 21C42 29.4677 39.0507 31.8267 23.1583 54.8707C22.917 55.2182 22.5953 55.5024 22.2205 55.6989C21.8458 55.8955 21.4291 55.9986 21.0059 55.9995C20.5828 56.0004 20.1657 55.8991 19.7901 55.7042C19.4145 55.5093 19.0915 55.2265 18.8487 54.88L18.844 54.8707L18.8417 54.88Z" fill="#1A81FF"/>
<path d="M20.6113 11.1221V9.36219V7.0625C20.6113 7.05672 20.6106 7.05507 20.61 7.05365L20.6099 7.0535C20.6087 7.05059 20.6048 7.04331 20.5955 7.03428C20.5776 7.01672 20.5479 7 20.5003 7C20.4526 7 20.423 7.01672 20.405 7.03428C20.3958 7.04331 20.3919 7.05059 20.3906 7.0535C20.39 7.05495 20.3892 7.05651 20.3892 7.0625V9.30096V11.0834L18.6185 11.2878C17.771 11.3856 17.0003 11.5637 16.3147 11.8194L16.3146 11.8195C14.5806 12.466 13.3962 13.6141 13.0955 15.227L20.6113 11.1221ZM20.6113 11.1221L22.3569 11.3459M20.6113 11.1221L22.3569 11.3459M22.3569 11.3459C22.4164 11.3536 22.4659 11.3607 22.5297 11.3698C22.5613 11.3743 22.5964 11.3794 22.638 11.3852C23.3552 11.4898 25.3 11.7988 26.0602 11.9833C26.0663 11.9855 26.0773 11.9904 26.0915 12.001C26.11 12.015 26.1267 12.0334 26.1385 12.0521C26.1416 12.0571 26.1439 12.0615 26.1457 12.0651M22.3569 11.3459L26.1457 12.0651M26.1457 12.0651C26.1415 12.0716 26.133 12.0808 26.1154 12.091C26.0908 12.1054 26.0605 12.1137 26.026 12.1112M26.1457 12.0651L26.026 12.1112M26.026 12.1112C25.5195 11.9584 24.8053 11.837 24.2708 11.7524C23.7262 11.6661 23.168 11.5892 22.7907 11.5371C22.7137 11.5265 22.6442 11.5169 22.5839 11.5085C20.2516 11.1687 18.0789 11.3079 16.4249 11.9235L16.4218 11.9247C14.7585 12.5469 13.6122 13.6455 13.3169 15.2376L26.026 12.1112ZM13.5645 17.794L13.5612 17.787C13.2369 17.1029 13.125 16.2722 13.3168 15.2381L13.5645 17.794ZM13.5645 17.794L13.5679 17.801M13.5645 17.794L13.5679 17.801M13.5679 17.801C13.8938 18.4749 14.4338 19.0165 15.1299 19.4698L15.1299 19.4698M13.5679 17.801L15.1299 19.4698M15.1299 19.4698L15.1398 19.4763M15.1299 19.4698L15.1398 19.4763M15.1398 19.4763C16.5312 20.3708 18.5095 20.9051 20.5303 21.4385L20.7014 21.4863L20.7142 21.4899M15.1398 19.4763L20.7142 21.4899M20.7142 21.4899L20.727 21.4933M20.7142 21.4899L20.727 21.4933M20.727 21.4933C22.6724 22.0086 24.6363 22.552 26.0212 23.448C26.75 23.9231 27.3192 24.4886 27.6538 25.1904L27.6541 25.1909M20.727 21.4933L27.6541 25.1909M27.6541 25.1909C27.9915 25.8979 28.0933 26.7446 27.91 27.7061L27.91 27.7061M27.6541 25.1909L27.91 27.7061M27.91 27.7061L27.9077 27.7184M27.91 27.7061L27.9077 27.7184M27.9077 27.7184C27.6018 29.3795 26.4305 30.5535 24.7901 31.2218C24.0884 31.5037 23.2811 31.6979 22.3901 31.797L20.6113 31.995M27.9077 27.7184L20.6113 31.995M20.6113 31.995V33.7848M20.6113 31.995V33.7848M20.6113 33.7848V35.9375C20.6113 35.9444 20.6104 35.9463 20.6098 35.9476C20.6086 35.9503 20.6049 35.9573 20.596 35.966C20.5787 35.9829 20.5491 36 20.5003 36C20.4514 36 20.4218 35.9829 20.4045 35.966C20.3956 35.9573 20.3919 35.9503 20.3907 35.9476C20.3902 35.9463 20.3892 35.9444 20.3892 35.9375V33.6881V31.7382M20.6113 33.7848L20.3892 31.7382M20.3892 31.7382C22.0293 31.8012 23.5005 31.5885 24.6856 31.1202L24.6915 31.1178C26.2989 30.4766 27.3866 29.3522 27.6842 27.7663L27.6842 27.7663L27.6863 27.7551C27.8703 26.7427 27.7743 25.9023 27.4324 25.1972L27.4314 25.1952C27.1057 24.5252 26.5681 23.9858 25.8785 23.5336L25.87 23.528L25.8614 23.5225C24.4685 22.6292 22.4918 22.0951 20.4703 21.5615L20.2991 21.5137L20.2863 21.5101L20.2735 21.5067C18.3279 20.9913 16.3626 20.4479 14.9762 19.5516C14.2515 19.0796 13.6846 18.5146 13.3476 17.8088L13.3466 17.8065C13.0118 17.1077 12.9031 16.2617 13.0953 15.2276L20.3892 31.7382ZM18.6402 31.5742C18.9667 31.622 19.2888 31.66 19.6056 31.6881H18.6911C18.5793 31.6675 18.4573 31.6548 18.3265 31.6549C16.8378 31.3994 14.5558 30.797 13.0517 30.1461C13.0312 30.137 13.0208 30.128 13.0153 30.1222C13.0088 30.1155 13.0048 30.1086 13.0024 30.1026C13.0001 30.0966 13 30.0931 13 30.0922L13.0003 30.09C13.0005 30.0891 13.0011 30.0866 13.003 30.0822C13.0065 30.0751 13.0112 30.0686 13.019 30.0614C13.0287 30.0525 13.0425 30.0436 13.0588 30.0374C13.0698 30.0332 13.0784 30.0316 13.0836 30.031L13.106 30.0413L13.1404 30.0556C14.7497 30.7264 17.1795 31.3519 18.6292 31.5725L18.6292 31.5726L18.6402 31.5742Z" fill="white" stroke="white" stroke-width="4"/>
</svg>
