
<svg width="47" height="45" viewBox="0 0 47 45" fill="none" xmlns="http://www.w3.org/2000/svg">
<path d="M12.8842 22.3447C12.7839 24.0877 14.1249 25.58 15.8669 25.6803C15.9296 25.6803 15.9922 25.6803 16.0549 25.6803C17.8095 25.6803 19.2256 24.2633 19.2131 22.5077C19.2131 20.7522 17.7969 19.3352 16.0424 19.3477C14.363 19.3477 12.9719 20.6644 12.8842 22.3447Z" fill="#1A81FF"/>
<path d="M1.07885 21.5297C0.514885 21.492 0.0261162 21.9309 0.00105119 22.4952C-0.0240139 23.0595 0.402092 23.5485 0.966055 23.5736C1.53002 23.6112 2.00625 23.1724 2.04385 22.6081C2.08145 22.0438 1.64281 21.5673 1.07885 21.5297Z" fill="#1A81FF"/>
<path d="M12.6857 3.9622C13.187 3.71141 13.3875 3.08442 13.1369 2.58284C12.8862 2.08125 12.2596 1.88061 11.7583 2.13141C11.257 2.3822 11.0565 2.99665 11.3071 3.49823C11.5578 4.01236 12.1719 4.22554 12.6857 3.9622Z" fill="#1A81FF"/>
<path d="M15.8902 9.56639C16.6672 9.17766 16.9805 8.22465 16.592 7.44719C16.2035 6.66972 15.251 6.35623 14.474 6.74496C13.697 7.13369 13.3837 8.08671 13.7722 8.86417C14.1607 9.64163 15.1132 9.95512 15.8902 9.56639Z" fill="#1A81FF"/>
<path d="M5.08811 13.416C5.68967 13.8047 6.49175 13.6417 6.89279 13.0398C7.2813 12.4379 7.11838 11.6353 6.51682 11.2341C5.91526 10.8453 5.11318 11.0084 4.71214 11.6103C4.31109 12.2122 4.48655 13.0272 5.08811 13.416Z" fill="#1A81FF"/>
<path d="M7.00543 20.9636C6.12815 20.9134 5.38873 21.578 5.3386 22.4558C5.28847 23.3336 5.95269 24.0734 6.82997 24.1236C7.70725 24.1738 8.44667 23.5092 8.4968 22.6314C8.54693 21.7661 7.88271 21.0138 7.00543 20.9636Z" fill="#1A81FF"/>
<path d="M5.26345 31.5874C4.62429 31.9135 4.36111 32.6909 4.68695 33.343C5.0128 33.9825 5.78981 34.2458 6.4415 33.9198C7.08066 33.5938 7.34385 32.8163 7.018 32.1642C6.69215 31.5247 5.90261 31.2614 5.26345 31.5874Z" fill="#1A81FF"/>
<path d="M11.4069 17.689C12.2716 18.2532 13.4246 18.015 13.9761 17.1497C14.54 16.2845 14.3019 15.1309 13.4372 14.5791C12.5724 14.0148 11.4194 14.2531 10.868 15.1183C10.304 15.971 10.5422 17.1247 11.4069 17.689Z" fill="#1A81FF"/>
<path d="M30.894 9.43949C31.6209 9.916 32.611 9.71536 33.0872 8.98806C33.5635 8.26076 33.3629 7.27013 32.636 6.79362C31.9092 6.31711 30.9191 6.51775 30.4428 7.24505C29.9541 7.98489 30.1546 8.96298 30.894 9.43949Z" fill="#1A81FF"/>
<path d="M34.1283 3.86149C34.6045 4.17499 35.2312 4.03705 35.5445 3.56054C35.8578 3.08403 35.7199 2.45705 35.2437 2.14356C34.7675 1.83006 34.1408 1.968 33.8275 2.43197C33.5268 2.90848 33.6646 3.548 34.1283 3.86149Z" fill="#1A81FF"/>
<path d="M31.1319 19.3217C29.3899 19.2214 27.886 20.5631 27.7982 22.3061C27.698 24.0492 29.039 25.5539 30.781 25.6417C30.8436 25.6417 30.9063 25.6417 30.9564 25.6417C32.6985 25.6417 34.1146 24.2247 34.1146 22.4692C34.1272 20.8014 32.8113 19.4095 31.1319 19.3217Z" fill="#1A81FF"/>
<path d="M16.9311 17.4643C17.47 18.5302 18.5603 19.2073 19.7635 19.2073C21.5055 19.2073 22.9216 17.7904 22.9216 16.0348C22.9216 15.5458 22.8089 15.0567 22.5833 14.6053C21.7937 13.0378 19.8888 12.4108 18.3347 13.2008C16.7682 14.0034 16.1416 15.9094 16.9311 17.4643Z" fill="#1A81FF"/>
<path d="M41.7337 13.4138C42.3728 13.0878 42.6235 12.2978 42.2976 11.6582C41.9718 11.0187 41.1823 10.7679 40.5431 11.094C39.9039 11.42 39.6533 12.1974 39.9666 12.837C40.305 13.4765 41.082 13.7398 41.7337 13.4138Z" fill="#1A81FF"/>
<path d="M33.7136 14.4181C32.7987 14.8821 32.4227 15.9981 32.8864 16.9135C33.3501 17.8289 34.4655 18.2051 35.3804 17.7411C36.2952 17.2772 36.6712 16.1611 36.2075 15.2457C35.7438 14.3304 34.6284 13.9667 33.7136 14.4181Z" fill="#1A81FF"/>
<path d="M23.3745 3.38355C24.0889 3.42116 24.703 2.86942 24.7531 2.15466C24.8032 1.43989 24.2393 0.82545 23.5249 0.775292C22.8106 0.737673 22.1965 1.27688 22.1463 1.99164C22.1087 2.71894 22.6602 3.33339 23.3745 3.38355Z" fill="#1A81FF"/>
<path d="M23.3623 11.5727C24.39 11.6354 25.2673 10.8454 25.3174 9.8171C25.38 8.78885 24.5905 7.91107 23.5628 7.86091C22.5352 7.79821 21.6579 8.58821 21.6078 9.61647C21.5576 10.6447 22.3346 11.5225 23.3623 11.5727Z" fill="#1A81FF"/>
<path d="M13.2866 30.5826C14.2015 30.1186 14.5775 29.0026 14.1138 28.0872C13.6501 27.1718 12.5347 26.7956 11.6198 27.2596C10.7049 27.7235 10.329 28.8396 10.7927 29.755C11.2564 30.6704 12.3718 31.0466 13.2866 30.5826Z" fill="#1A81FF"/>
<path d="M24.5668 14.2928C23.6143 15.7599 24.0154 17.7161 25.4817 18.6691C26.948 19.6222 28.903 19.2209 29.8555 17.7537C30.808 16.2866 30.4069 14.3304 28.9406 13.3774C28.4268 13.0388 27.8252 12.8633 27.2112 12.8633C26.1459 12.8633 25.1558 13.4025 24.5668 14.2928Z" fill="#1A81FF"/>
<path d="M30.0677 27.535C29.2781 25.9675 27.3732 25.3405 25.8191 26.1305C24.2526 26.9205 23.6259 28.8266 24.4155 30.3815C25.205 31.9489 27.11 32.5759 28.664 31.7859C30.2181 31.0085 30.8572 29.1275 30.0802 27.56C30.0802 27.5475 30.0802 27.5475 30.0677 27.535Z" fill="#1A81FF"/>
<path d="M35.5934 27.3076C34.7287 26.7433 33.5757 26.9816 33.0243 27.8468C32.4603 28.7121 32.6984 29.8657 33.5631 30.4175C34.4279 30.9818 35.5809 30.7435 36.1323 29.8783C36.6963 29.0256 36.4581 27.8719 35.5934 27.3076Z" fill="#1A81FF"/>
<path d="M41.657 22.5552C41.7071 21.6774 41.0429 20.9376 40.1656 20.8874C39.2883 20.8373 38.5489 21.5019 38.4988 22.3797C38.4486 23.2574 39.1129 23.9973 39.9901 24.0474C40.8549 24.0976 41.6068 23.4204 41.657 22.5552Z" fill="#1A81FF"/>
<path d="M46.032 21.43C45.468 21.3924 44.9792 21.8313 44.9542 22.3955C44.9291 22.9598 45.3552 23.4489 45.9192 23.474C46.4831 23.5116 46.9594 23.0727 46.997 22.5084C47.022 21.9441 46.5959 21.4676 46.032 21.43Z" fill="#1A81FF"/>
<path d="M41.9136 31.5856C41.3121 31.1969 40.51 31.3599 40.1089 31.9618C39.7204 32.5637 39.8834 33.3662 40.4849 33.7675C41.0865 34.1562 41.8886 33.9932 42.2896 33.3913C42.6906 32.7894 42.5152 31.9744 41.9136 31.5856Z" fill="#1A81FF"/>
<path d="M12.8624 41.1396C12.3861 40.8262 11.7595 40.9641 11.4462 41.4281C11.1329 41.9046 11.2707 42.5315 11.7344 42.845C12.2107 43.1585 12.8373 43.0206 13.1506 42.5566C13.4765 42.0927 13.3386 41.4531 12.8624 41.1396Z" fill="#1A81FF"/>
<path d="M34.3169 41.0409C33.8156 41.2917 33.6151 41.9187 33.8657 42.4203C34.1164 42.9219 34.743 43.1225 35.2443 42.8717C35.7456 42.6209 35.9461 42.0065 35.6955 41.5049C35.4448 40.9907 34.8307 40.7776 34.3169 41.0409Z" fill="#1A81FF"/>
<path d="M22.4361 30.7079C23.3886 29.2408 22.9875 27.2846 21.5212 26.319C20.0549 25.366 18.0998 25.7673 17.1348 27.2344C16.1698 28.7016 16.5834 30.6578 18.0497 31.6233C18.5635 31.9619 19.1651 32.1375 19.7792 32.1375C20.857 32.15 21.8471 31.6108 22.4361 30.7079Z" fill="#1A81FF"/>
<path d="M16.1038 35.5612C15.377 35.0847 14.3869 35.2853 13.9107 36.0126C13.4344 36.7399 13.6349 37.7306 14.3618 38.2071C15.0887 38.6836 16.0788 38.483 16.555 37.7557C17.0438 37.0283 16.8433 36.0377 16.1038 35.5612Z" fill="#1A81FF"/>
<path d="M23.4872 41.6171C22.7728 41.5794 22.1587 42.1312 22.1086 42.8459C22.0584 43.5607 22.6224 44.1751 23.3368 44.2253C24.0511 44.2629 24.6652 43.7237 24.7153 43.0089C24.7529 42.2816 24.2015 41.6672 23.4872 41.6171Z" fill="#1A81FF"/>
<path d="M23.4976 33.4273C22.47 33.3646 21.5927 34.1546 21.5425 35.1829C21.4799 36.2111 22.2694 37.0889 23.2971 37.1391C24.3248 37.1892 25.202 36.4118 25.2522 35.3835C25.3148 34.3678 24.5253 33.4775 23.4976 33.4273Z" fill="#1A81FF"/>
<path d="M31.1102 35.436C30.3332 35.8373 30.0199 36.7903 30.421 37.5678C30.822 38.3452 31.7745 38.6587 32.5515 38.2574C33.3285 37.8687 33.6418 36.9157 33.2533 36.1382C32.8523 35.3608 31.8998 35.0347 31.1102 35.436Z" fill="#1A81FF"/>
</svg>
