<svg width="20" height="19" viewBox="0 0 20 19" fill="none" xmlns="http://www.w3.org/2000/svg">
<path d="M5.48271 9.43357C5.44005 10.1957 6.01072 10.8482 6.75207 10.8921C6.77874 10.8921 6.8054 10.8921 6.83207 10.8921C7.57875 10.8921 8.18143 10.2725 8.17609 9.50485C8.17609 8.7372 7.57342 8.1176 6.82674 8.12308C6.11206 8.12308 5.52005 8.69882 5.48271 9.43357Z" fill="white"/>
<path d="M0.459122 9.0752C0.219118 9.05875 0.0111142 9.25066 0.000447352 9.49741C-0.0102195 9.74415 0.171117 9.95799 0.411121 9.96896C0.651125 9.98541 0.853795 9.7935 0.869795 9.54676C0.885795 9.30001 0.699126 9.09165 0.459122 9.0752Z" fill="white"/>
<path d="M5.40213 1.39463C5.61547 1.28497 5.7008 1.01081 5.59414 0.791482C5.48747 0.572154 5.2208 0.484423 5.00746 0.594087C4.79412 0.703751 4.70878 0.972428 4.81545 1.19176C4.92212 1.41657 5.18346 1.50978 5.40213 1.39463C5.3968 1.39463 5.40213 1.39463 5.40213 1.39463Z" fill="white"/>
<path d="M6.76137 3.84573C7.09204 3.67576 7.22538 3.25903 7.06004 2.91907C6.89471 2.57912 6.48937 2.44204 6.15869 2.61202C5.82802 2.78199 5.69469 3.19872 5.86002 3.53868C6.02536 3.87863 6.4307 4.01571 6.76137 3.84573Z" fill="white"/>
<path d="M2.16601 5.5286C2.42201 5.69858 2.76335 5.6273 2.93402 5.36411C3.09935 5.10091 3.03002 4.74999 2.77401 4.57452C2.51801 4.40454 2.17667 4.47583 2.006 4.73902C1.83533 5.00221 1.91 5.35862 2.16601 5.5286Z" fill="white"/>
<path d="M2.98001 8.82734C2.60667 8.8054 2.292 9.09601 2.27066 9.47984C2.24933 9.86366 2.532 10.1872 2.90534 10.2091C3.27868 10.231 3.59335 9.94043 3.61469 9.5566C3.63602 9.17826 3.35335 8.84927 2.98001 8.82734Z" fill="white"/>
<path d="M2.23854 13.4753C1.96654 13.6179 1.85454 13.9579 1.99321 14.243C2.13187 14.5226 2.46255 14.6378 2.73988 14.4952C3.01189 14.3527 3.12389 14.0127 2.98522 13.7276C2.84655 13.4479 2.51055 13.3328 2.23854 13.4753Z" fill="white"/>
<path d="M4.85154 7.39575C5.21954 7.64249 5.71022 7.53831 5.94489 7.15997C6.18489 6.78163 6.08356 6.27718 5.71555 6.03592C5.34754 5.78917 4.85687 5.89335 4.6222 6.27169C4.3822 6.64455 4.48353 7.149 4.85154 7.39575Z" fill="white"/>
<path d="M13.1494 3.7895C13.4587 3.99786 13.8801 3.91013 14.0828 3.59211C14.2854 3.27408 14.2001 2.84091 13.8908 2.63255C13.5814 2.42419 13.1601 2.51192 12.9574 2.82994C12.7494 3.15345 12.8347 3.58114 13.1494 3.7895Z" fill="white"/>
<path d="M14.524 1.35046C14.7267 1.48754 14.9934 1.42723 15.1267 1.21887C15.26 1.01051 15.2014 0.736346 14.9987 0.599266C14.796 0.462186 14.5294 0.522501 14.396 0.72538C14.268 0.933741 14.3267 1.21338 14.524 1.35046Z" fill="white"/>
<path d="M13.2491 8.10973C12.5077 8.06586 11.8677 8.65257 11.8304 9.41473C11.7877 10.1769 12.3584 10.8349 13.0997 10.8733C13.1264 10.8733 13.1531 10.8733 13.1744 10.8733C13.9157 10.8733 14.5184 10.2537 14.5184 9.48602C14.5237 8.75675 13.9637 8.14811 13.2491 8.10973Z" fill="white"/>
<path d="M7.20773 7.29875C7.43707 7.76482 7.90107 8.06091 8.41308 8.06091C9.15443 8.06091 9.7571 7.44131 9.7571 6.67367C9.7571 6.45982 9.7091 6.24598 9.6131 6.04858C9.2771 5.36318 8.46642 5.08902 7.80507 5.43446C7.13839 5.78539 6.87172 6.61883 7.20773 7.29875Z" fill="white"/>
<path d="M17.7585 5.52809C18.0305 5.38552 18.1372 5.04008 17.9985 4.76044C17.8598 4.4808 17.5238 4.37113 17.2518 4.5137C16.9798 4.65626 16.8732 4.99622 17.0065 5.27586C17.1505 5.5555 17.4812 5.67065 17.7585 5.52809Z" fill="white"/>
<path d="M14.3468 5.96548C13.9575 6.16836 13.7975 6.65636 13.9948 7.05663C14.1921 7.45691 14.6668 7.6214 15.0562 7.41853C15.4455 7.21565 15.6055 6.72764 15.4082 6.32737C15.2108 5.9271 14.7361 5.76809 14.3468 5.96548Z" fill="white"/>
<path d="M9.94921 1.14132C10.2532 1.15777 10.5145 0.916505 10.5359 0.603963C10.5572 0.29142 10.3172 0.0227436 10.0132 0.00081079C9.7092 -0.0156388 9.44786 0.220139 9.42653 0.532681C9.41053 0.850706 9.6452 1.11938 9.94921 1.14132Z" fill="white"/>
<path d="M9.94297 4.72221C10.3803 4.74962 10.7536 4.40418 10.775 3.95456C10.8016 3.50494 10.4656 3.12111 10.0283 3.09918C9.59096 3.07177 9.21762 3.41721 9.19629 3.86683C9.17496 4.31645 9.50563 4.70027 9.94297 4.72221Z" fill="white"/>
<path d="M5.65381 13.0342C6.04315 12.8313 6.20315 12.3433 6.00582 11.9431C5.80848 11.5428 5.33381 11.3783 4.94447 11.5812C4.55513 11.784 4.39513 12.2721 4.59246 12.6723C4.7898 13.0726 5.26447 13.2371 5.65381 13.0342Z" fill="white"/>
<path d="M10.4579 5.91219C10.0525 6.55372 10.2232 7.4091 10.8472 7.82582C11.4712 8.24255 12.3032 8.06708 12.7086 7.42555C13.1139 6.78402 12.9432 5.92864 12.3192 5.51192C12.1006 5.36387 11.8446 5.28711 11.5832 5.28711C11.1299 5.28711 10.7085 5.52289 10.4579 5.91219Z" fill="white"/>
<path d="M12.7967 11.7009C12.4607 11.0155 11.65 10.7414 10.9887 11.0868C10.322 11.4323 10.0553 12.2657 10.3913 12.9456C10.7273 13.631 11.538 13.9052 12.1994 13.5597C12.8607 13.2198 13.1327 12.3973 12.802 11.7119C12.802 11.7064 12.802 11.7064 12.7967 11.7009Z" fill="white"/>
<path d="M15.1452 11.6023C14.7772 11.3556 14.2866 11.4598 14.0519 11.8381C13.8119 12.2164 13.9132 12.7209 14.2812 12.9622C14.6492 13.2089 15.1399 13.1047 15.3746 12.7264C15.6146 12.3535 15.5132 11.8491 15.1452 11.6023Z" fill="white"/>
<path d="M17.728 9.52535C17.7493 9.14153 17.4666 8.81802 17.0933 8.79609C16.72 8.77415 16.4053 9.06476 16.3839 9.44859C16.3626 9.83241 16.6453 10.1559 17.0186 10.1779C17.3866 10.1998 17.7066 9.90369 17.728 9.52535Z" fill="white"/>
<path d="M19.588 9.03419C19.348 9.01774 19.14 9.20965 19.1294 9.45639C19.1187 9.70314 19.3 9.91698 19.54 9.92795C19.78 9.9444 19.9827 9.75249 19.9987 9.50574C20.0094 9.259 19.828 9.05064 19.588 9.03419Z" fill="white"/>
<path d="M17.8381 13.473C17.5821 13.303 17.2407 13.3743 17.0701 13.6375C16.9047 13.9006 16.9741 14.2516 17.2301 14.427C17.4861 14.597 17.8274 14.5257 17.9981 14.2625C18.1687 13.9993 18.0941 13.6429 17.8381 13.473Z" fill="white"/>
<path d="M5.47532 17.65C5.27265 17.513 5.00597 17.5733 4.87264 17.7762C4.7393 17.9845 4.79797 18.2587 4.99531 18.3958C5.19798 18.5328 5.46465 18.4725 5.59798 18.2696C5.73665 18.0668 5.67799 17.7871 5.47532 17.65Z" fill="white"/>
<path d="M14.6051 17.6081C14.3918 17.7177 14.3064 17.9919 14.4131 18.2112C14.5198 18.4306 14.7864 18.5183 14.9998 18.4086C15.2131 18.299 15.2984 18.0303 15.1918 17.811C15.0851 17.5861 14.8238 17.4929 14.6051 17.6081C14.6104 17.6081 14.6051 17.6081 14.6051 17.6081Z" fill="white"/>
<path d="M9.54831 13.0882C9.95365 12.4467 9.78298 11.5913 9.15897 11.1691C8.53495 10.7524 7.70294 10.9279 7.29226 11.5694C6.88159 12.2109 7.05759 13.0663 7.68161 13.4885C7.90028 13.6366 8.15628 13.7133 8.41762 13.7133C8.87629 13.7188 9.29763 13.483 9.54831 13.0882Z" fill="white"/>
<path d="M6.85187 15.2107C6.54253 15.0023 6.12119 15.09 5.91852 15.4081C5.71585 15.7261 5.80119 16.1593 6.11053 16.3676C6.41986 16.576 6.8412 16.4883 7.04387 16.1702C7.25188 15.8522 7.16654 15.419 6.85187 15.2107Z" fill="white"/>
<path d="M9.99425 17.8582C9.69024 17.8418 9.4289 18.083 9.40757 18.3956C9.38624 18.7081 9.62624 18.9768 9.93025 18.9987C10.2343 19.0152 10.4956 18.7794 10.5169 18.4668C10.5329 18.1488 10.2983 17.8801 9.99425 17.8582Z" fill="white"/>
<path d="M10.0015 14.2769C9.56412 14.2495 9.19079 14.5949 9.16945 15.0446C9.14279 15.4942 9.47879 15.878 9.91613 15.9C10.3535 15.9219 10.7268 15.5819 10.7481 15.1323C10.7748 14.6882 10.4388 14.2988 10.0015 14.2769Z" fill="white"/>
<path d="M13.2388 15.1574C12.9082 15.3329 12.7748 15.7496 12.9455 16.0895C13.1162 16.4295 13.5215 16.5666 13.8522 16.3911C14.1829 16.2211 14.3162 15.8044 14.1509 15.4644C13.9802 15.1245 13.5749 14.9819 13.2388 15.1574Z" fill="white"/>
</svg>
